<svg width="79" height="79" viewBox="0 0 79 79" fill="none" xmlns="http://www.w3.org/2000/svg">
<path fill-rule="evenodd" clip-rule="evenodd" d="M66.0176 66.012C54.557 77.4738 37.5867 79.9501 23.6991 73.5276C21.6489 72.7021 19.9681 72.035 18.3701 72.035C13.9193 72.0614 8.37937 76.377 5.5001 73.5012C2.62083 70.6216 6.93973 65.0773 6.93973 60.5996C6.93973 59.0015 6.29906 57.3506 5.47372 55.2964C-0.951885 41.4111 1.52791 24.4351 12.9885 12.977C27.6185 -1.65838 51.3876 -1.65838 66.0176 12.9733C80.674 27.6313 80.6476 51.3803 66.0176 66.012Z" stroke="#49B1F7" stroke-width="4" stroke-linecap="round" stroke-linejoin="round"/>
<path d="M54.2728 41.0486H54.3065" stroke="#49B1F7" stroke-width="4" stroke-linecap="round" stroke-linejoin="round"/>
<path d="M39.2389 41.0486H39.2727" stroke="#49B1F7" stroke-width="4" stroke-linecap="round" stroke-linejoin="round"/>
<path d="M24.2053 41.0486H24.239" stroke="#49B1F7" stroke-width="4" stroke-linecap="round" stroke-linejoin="round"/>
</svg>
