<svg width="80" height="79" viewBox="0 0 80 79" fill="none" xmlns="http://www.w3.org/2000/svg">
<path d="M10.2882 19.4544C10.2882 14.3918 14.3903 10.2897 19.4529 10.2857H23.6239C26.0438 10.2857 28.3623 9.32502 30.0809 7.6226L32.9953 4.70416C36.5664 1.11285 42.3708 1.09664 45.9621 4.66767L45.9662 4.67173L46.0027 4.70416L48.9211 7.6226C50.6397 9.32907 52.9583 10.2857 55.3782 10.2857H59.545C64.6077 10.2857 68.7138 14.3877 68.7138 19.4544V23.6173C68.7138 26.0372 69.6704 28.3597 71.3769 30.0784L74.2953 32.9968C77.8866 36.5679 77.9069 42.3723 74.3359 45.9636L74.3318 45.9677L74.2953 46.0042L71.3769 48.9226C69.6704 50.6372 68.7138 52.9557 68.7138 55.3756V59.5465C68.7138 64.6092 64.6118 68.7113 59.5491 68.7113H59.545H55.37C52.9502 68.7113 50.6276 69.6719 48.913 71.3784L45.9946 74.2928C42.4276 77.8841 36.6272 77.9044 33.0359 74.3414C33.0318 74.3374 33.0278 74.3333 33.0237 74.3293L32.9872 74.2928L30.0728 71.3784C28.3582 69.6719 26.0357 68.7153 23.6158 68.7113H19.4529C14.3903 68.7113 10.2882 64.6092 10.2882 59.5465V55.3675C10.2882 52.9476 9.32757 50.6291 7.6211 48.9145L4.70671 45.9961C1.1154 42.4291 1.09514 36.6287 4.66212 33.0374C4.66212 33.0333 4.66617 33.0293 4.67023 33.0252L4.70671 32.9887L7.6211 30.0703C9.32757 28.3516 10.2882 26.0331 10.2882 23.6092V19.4544" stroke="#50DD89" stroke-width="4" stroke-linecap="round" stroke-linejoin="round"/>
<path d="M29.0826 49.9187L49.917 29.0843" stroke="#50DD89" stroke-width="4" stroke-linecap="round" stroke-linejoin="round"/>
<path d="M49.6086 49.6283H49.6451" stroke="#50DD89" stroke-width="4" stroke-linecap="round" stroke-linejoin="round"/>
<path d="M29.3417 29.3614H29.3781" stroke="#50DD89" stroke-width="4" stroke-linecap="round" stroke-linejoin="round"/>
</svg>
