<svg aria-hidden="true" style="position: absolute; width: 0; height: 0; overflow: hidden;" version="1.1" xmlns="http://www.w3.org/2000/svg" xmlns:xlink="http://www.w3.org/1999/xlink">
<defs>
<symbol id="icon-chat" viewBox="0 0 32 32">
<path fill="none" stroke="#49b1f7" style="stroke: var(--color1, #49b1f7)" stroke-linejoin="round" stroke-linecap="round" stroke-miterlimit="4" stroke-width="1.6203" d="M26.741 26.739c-4.642 4.643-11.516 5.646-17.142 3.044-0.83-0.335-1.511-0.605-2.159-0.605-1.803 0.011-4.047 1.759-5.213 0.594-1.167-1.167 0.583-3.412 0.583-5.226 0-0.648-0.259-1.316-0.594-2.148-2.603-5.624-1.598-12.5 3.044-17.142 5.926-5.928 15.554-5.928 21.48-0.002 5.937 5.937 5.926 15.557 0 21.484z"></path>
<path fill="none" stroke="#49b1f7" style="stroke: var(--color1, #49b1f7)" stroke-linejoin="round" stroke-linecap="round" stroke-miterlimit="4" stroke-width="1.6203" d="M21.984 16.627h0.013M15.894 16.627h0.014M9.805 16.627h0.014"></path>
</symbol>
<symbol id="icon-discount" viewBox="0 0 32 32">
<path fill="none" stroke="#50dd89" style="stroke: var(--color2, #50dd89)" stroke-linejoin="round" stroke-linecap="round" stroke-miterlimit="4" stroke-width="1.6203" d="M4.167 7.88c0-2.050 1.662-3.712 3.712-3.714h1.689c0.98 0 1.92-0.389 2.616-1.079l1.18-1.182c0.673-0.677 1.604-1.095 2.634-1.095 1.022 0 1.948 0.413 2.619 1.081l0.001 0.001 0.015 0.013 1.182 1.182c0.671 0.667 1.595 1.079 2.616 1.079h1.688c0 0 0 0 0 0 2.051 0 3.714 1.663 3.714 3.714v1.686c0 1.021 0.412 1.946 1.079 2.617l1.182 1.182c1.455 1.446 1.463 3.797 0.016 5.252l-0.001 0.002-0.015 0.015-1.182 1.182c-0.667 0.67-1.079 1.593-1.079 2.613 0 0 0 0.001 0 0.001v-0 1.689c0 0 0 0.001 0 0.001 0 2.050-1.662 3.712-3.712 3.712-0 0-0.001 0-0.001 0h-1.693c-0.98 0-1.921 0.389-2.616 1.080l-1.182 1.181c-0.673 0.677-1.605 1.097-2.635 1.097-1.020 0-1.944-0.411-2.615-1.077l0 0-0.004-0.005-0.015-0.015-1.18-1.181c-0.671-0.667-1.595-1.079-2.615-1.080h-1.687c-0 0-0.001 0-0.001 0-2.050 0-3.712-1.662-3.712-3.712 0-0 0-0 0-0v0-1.693c0-0.98-0.389-1.919-1.080-2.614l-1.18-1.182c-0.677-0.673-1.097-1.604-1.097-2.634 0-1.021 0.412-1.945 1.079-2.616l-0 0c0-0.002 0.002-0.003 0.003-0.005l0.015-0.015 1.18-1.182c0.667-0.671 1.080-1.596 1.080-2.617v-1.684M11.78 20.22l8.439-8.44M20.095 20.102h0.015M11.885 11.893h0.015"></path>
</symbol>
<symbol id="icon-email" viewBox="0 0 32 32">
<path fill="#50dd89" style="fill: var(--color2, #50dd89)" opacity="0.1" d="M32 16c0 8.837-7.163 16-16 16s-16-7.163-16-16c0-8.837 7.163-16 16-16s16 7.163 16 16z"></path>
<path fill="#50dd89" style="fill: var(--color2, #50dd89)" d="M18.634 11.378c0.001 0 0.001 0 0.002 0 1.488 0 2.695 1.206 2.697 2.694v4.213c-0.002 1.488-1.209 2.694-2.697 2.694-0.001 0-0.002 0-0.002 0h-5.268c-0 0-0.001 0-0.001 0-1.488 0-2.695-1.206-2.697-2.694v-4.213c0 0 0 0 0 0 0-1.488 1.206-2.694 2.694-2.694 0.002 0 0.004 0 0.005 0h5.269zM19.483 14.866l0.043-0.043c0.059-0.071 0.095-0.163 0.095-0.263 0-0.104-0.038-0.198-0.101-0.271l0 0.001c-0.072-0.076-0.17-0.127-0.28-0.139l-0.002-0c-0.007-0-0.015-0.001-0.024-0.001-0.106 0-0.203 0.041-0.275 0.108l0-0-2.405 1.92c-0.309 0.256-0.752 0.256-1.067 0l-2.4-1.92c-0.067-0.051-0.153-0.082-0.246-0.082-0.225 0-0.407 0.182-0.407 0.407 0 0.092 0.031 0.178 0.083 0.246l-0.001-0.001 0.070 0.070 2.426 1.894c0.283 0.227 0.647 0.364 1.042 0.364s0.759-0.137 1.046-0.366l-0.003 0.003 2.406-1.926z"></path>
</symbol>
<symbol id="icon-heart" viewBox="0 0 33 32">
<path fill="none" stroke="#50dd89" style="stroke: var(--color2, #50dd89)" stroke-linejoin="round" stroke-linecap="round" stroke-miterlimit="4" stroke-width="1.6842" d="M1.46 15.135c-1.784-5.569 0.301-11.934 6.147-13.817 3.075-0.992 6.469-0.407 9.026 1.516 2.419-1.869 5.938-2.501 9.010-1.516 5.846 1.883 7.944 8.248 6.162 13.817-2.776 8.827-15.172 15.625-15.172 15.625s-12.304-6.695-15.173-15.625z"></path>
<path fill="none" stroke="#50dd89" style="stroke: var(--color2, #50dd89)" stroke-linejoin="round" stroke-linecap="round" stroke-miterlimit="4" stroke-width="1.6842" d="M23.283 6.992c1.755 0.58 3.029 2.136 3.185 4.009l0.001 0.017"></path>
</symbol>
<symbol id="icon-phone" viewBox="0 0 32 32">
<path fill="#7255ce" style="fill: var(--color3, #7255ce)" opacity="0.1" d="M32 16c0 8.837-7.163 16-16 16s-16-7.163-16-16c0-8.837 7.163-16 16-16s16 7.163 16 16z"></path>
<path fill="#816ae2" style="fill: var(--color4, #816ae2)" d="M15.737 16.265c2.24 2.239 2.748-0.351 4.174 1.074 1.374 1.374 2.164 1.65 0.422 3.391-0.218 0.176-1.604 2.285-6.475-2.586s-2.764-6.258-2.588-6.476c1.746-1.746 2.017-0.951 3.391 0.423 1.426 1.426-1.163 1.935 1.076 4.174z"></path>
</symbol>
<symbol id="icon-star" viewBox="0 0 35 32">
<path fill="none" stroke="#49b1f7" style="stroke: var(--color1, #49b1f7)" stroke-linejoin="round" stroke-linecap="round" stroke-miterlimit="4" stroke-width="1.7297" d="M19.289 2.071l3.254 6.5c0.322 0.63 0.923 1.078 1.637 1.182l0.012 0.001 7.279 1.048c1.798 0.259 2.514 2.439 1.213 3.688l-5.264 5.058c-0.408 0.391-0.662 0.94-0.662 1.549 0 0.129 0.011 0.256 0.033 0.379l-0.002-0.013 1.242 7.14c0.306 1.767-1.574 3.114-3.182 2.279l-6.506-3.374c-0.296-0.156-0.648-0.248-1.021-0.248s-0.724 0.092-1.033 0.254l0.012-0.006-6.506 3.374c-1.608 0.835-3.488-0.512-3.18-2.279l1.241-7.141c0.020-0.11 0.031-0.237 0.031-0.366 0-0.609-0.254-1.158-0.661-1.548l-5.265-5.058c-1.302-1.249-0.586-3.429 1.213-3.688l7.279-1.048c0.725-0.105 1.328-0.553 1.644-1.171l0.006-0.012 3.252-6.5c0.804-1.607 3.128-1.607 3.933 0z"></path>
</symbol>
<symbol id="icon-time" viewBox="0 0 32 32">
<path fill="#49b1f7" style="fill: var(--color1, #49b1f7)" opacity="0.1" d="M32 16c0 8.837-7.163 16-16 16s-16-7.163-16-16c0-8.837 7.163-16 16-16s16 7.163 16 16z"></path>
<path fill="#49b1f7" style="fill: var(--color1, #49b1f7)" d="M16 21.333c-2.944 0-5.333-2.384-5.333-5.333 0-2.944 2.389-5.333 5.333-5.333 2.95 0 5.333 2.389 5.333 5.333 0 2.95-2.384 5.333-5.333 5.333zM17.701 17.978c0.059 0.037 0.131 0.059 0.207 0.059 0.145 0 0.273-0.079 0.341-0.196l0.001-0.002c0.035-0.059 0.056-0.129 0.056-0.205 0-0.145-0.077-0.273-0.193-0.343l-0.002-0.001-1.899-1.131v-2.464c0-0.221-0.179-0.4-0.4-0.4s-0.4 0.179-0.4 0.4v0 2.693c0 0.139 0.075 0.267 0.197 0.341l2.091 1.248z"></path>
</symbol>
</defs>
</svg>
