<svg width="80" height="74" viewBox="0 0 80 74" fill="none" xmlns="http://www.w3.org/2000/svg">
<path fill-rule="evenodd" clip-rule="evenodd" d="M44.6058 4.78767L52.1304 19.8202C52.8679 21.2959 54.2913 22.3192 55.942 22.556L72.7749 24.979C76.9338 25.5795 78.5888 30.6199 75.579 33.508L63.4066 45.2042C62.2104 46.3543 61.6659 48.0077 61.9489 49.6315L64.8215 66.144C65.529 70.2287 61.1814 73.3452 57.4641 71.4127L42.4191 63.611C40.9442 62.8457 39.1777 62.8457 37.6985 63.611L22.6535 71.4127C18.9362 73.3452 14.5887 70.2287 15.3004 66.144L18.1688 49.6315C18.4518 48.0077 17.9072 46.3543 16.711 45.2042L4.53868 33.508C1.52883 30.6199 3.18382 25.5795 7.34273 24.979L24.1756 22.556C25.8263 22.3192 27.2541 21.2959 27.9915 19.8202L35.5119 4.78767C37.3727 1.07078 42.745 1.07078 44.6058 4.78767Z" stroke="#49B1F7" stroke-width="4" stroke-linecap="round" stroke-linejoin="round"/>
</svg>
