<svg xmlns="http://www.w3.org/2000/svg" width="79" height="79" fill="none"><path stroke="#49B1F7" stroke-linecap="round" stroke-linejoin="round" stroke-width="4" d="M66.018 66.012C54.557 77.474 37.587 79.95 23.699 73.528c-2.05-.826-3.73-1.493-5.329-1.493-4.45.026-9.99 4.342-12.87 1.466-2.88-2.88 1.44-8.424 1.44-12.901 0-1.599-.64-3.25-1.466-5.304-6.426-13.885-3.946-30.86 7.514-42.319 14.63-14.635 38.4-14.635 53.03-.004 14.656 14.658 14.63 38.407 0 53.039Z" clip-rule="evenodd"/><path stroke="#49B1F7" stroke-linecap="round" stroke-linejoin="round" stroke-width="4" d="M54.273 41.049h.033M39.239 41.049h.034M24.205 41.049h.034"/></svg>