<svg xmlns="http://www.w3.org/2000/svg" width="80" height="79" fill="none"><path stroke="#50DD89" stroke-linecap="round" stroke-linejoin="round" stroke-width="4" d="M10.288 19.454c0-5.062 4.102-9.164 9.165-9.168h4.17c2.42 0 4.74-.961 6.458-2.663l2.914-2.919a9.168 9.168 0 0 1 12.967-.036l.004.004.037.032 2.918 2.919a9.16 9.16 0 0 0 6.457 2.663h4.167a9.168 9.168 0 0 1 9.169 9.168v4.163a9.17 9.17 0 0 0 2.663 6.461l2.918 2.919c3.592 3.57 3.612 9.375.04 12.967l-.003.004-.037.036-2.918 2.919a9.144 9.144 0 0 0-2.663 6.453v4.17a9.163 9.163 0 0 1-9.165 9.165H55.37c-2.42 0-4.742.96-6.457 2.667l-2.918 2.915a9.166 9.166 0 0 1-12.96.048l-.011-.012-.037-.036-2.914-2.915a9.174 9.174 0 0 0-6.457-2.667h-4.163a9.163 9.163 0 0 1-9.165-9.164v-4.18c0-2.42-.96-4.738-2.667-6.453l-2.914-2.918a9.162 9.162 0 0 1-.045-12.959c0-.004.004-.008.008-.012l.037-.036L7.62 30.07a9.167 9.167 0 0 0 2.667-6.46v-4.156M29.083 49.919l20.834-20.835M49.609 49.628h.036M29.342 29.361h.036"/></svg>