<svg xmlns="http://www.w3.org/2000/svg" width="45" height="45" fill="none"><circle cx="22.5" cy="22.5" r="22.5" fill="#50DD89" fill-opacity=".1"/><path fill="#50DD89" fill-rule="evenodd" d="M26.204 16A3.793 3.793 0 0 1 30 19.788v5.924a3.793 3.793 0 0 1-3.796 3.788h-7.409A3.793 3.793 0 0 1 15 25.712v-5.924A3.788 3.788 0 0 1 18.795 16h7.41Zm1.194 4.905.06-.06a.58.58 0 0 0-.009-.75.63.63 0 0 0-.397-.195.57.57 0 0 0-.42.15l-3.382 2.7c-.435.36-1.058.36-1.5 0l-3.375-2.7a.573.573 0 0 0-.803.802l.098.098 3.412 2.663a2.357 2.357 0 0 0 2.932 0l3.384-2.708Z" clip-rule="evenodd"/></svg>