<svg xmlns="http://www.w3.org/2000/svg" aria-hidden="true" style="position:absolute;width:0;height:0;overflow:hidden"><defs>
<symbol id="icon-chat" viewBox="0 0 32 32"><path fill="none" stroke="#49b1f7" stroke-linecap="round" stroke-linejoin="round" stroke-width="1.62" d="M26.741 26.739c-4.642 4.643-11.516 5.646-17.142 3.044-.83-.335-1.511-.605-2.159-.605-1.803.011-4.047 1.759-5.213.594-1.167-1.167.583-3.412.583-5.226 0-.648-.259-1.316-.594-2.148C-.387 16.774.618 9.898 5.26 5.256c5.926-5.928 15.554-5.928 21.48-.002 5.937 5.937 5.926 15.557 0 21.484zM21.984 16.627h.013m-6.103 0h.014m-6.103 0h.014" style="stroke:var(--color1, #49b1f7)"/></symbol>
<symbol id="icon-discount" viewBox="0 0 32 32"><path fill="none" stroke="#50dd89" stroke-linecap="round" stroke-linejoin="round" stroke-width="1.62" d="M4.167 7.88a3.715 3.715 0 0 1 3.712-3.714h1.689c.98 0 1.92-.389 2.616-1.079l1.18-1.182A3.7 3.7 0 0 1 15.998.81c1.022 0 1.948.413 2.619 1.081l.001.001.015.013 1.182 1.182a3.698 3.698 0 0 0 2.616 1.079h1.688s0 0 0 0a3.714 3.714 0 0 1 3.714 3.714v1.686a3.7 3.7 0 0 0 1.079 2.617l1.182 1.182a3.712 3.712 0 0 1 .016 5.252l-.001.002-.015.015-1.182 1.182a3.691 3.691 0 0 0-1.079 2.613V24.12a3.712 3.712 0 0 1-3.712 3.712h-1.694c-.98 0-1.921.389-2.616 1.08l-1.182 1.181a3.705 3.705 0 0 1-2.635 1.097 3.7 3.7 0 0 1-2.615-1.077h0l-.004-.005-.015-.015-1.18-1.181a3.703 3.703 0 0 0-2.615-1.08H7.877a3.712 3.712 0 0 1-3.712-3.712s0 0 0 0v0-1.693c0-.98-.389-1.919-1.08-2.614l-1.18-1.182a3.702 3.702 0 0 1-1.097-2.634c0-1.021.412-1.945 1.079-2.616h0c0-.002.002-.003.003-.005l.015-.015 1.18-1.182a3.701 3.701 0 0 0 1.08-2.617V7.878M11.78 20.22l8.439-8.44m-.124 8.322h.015m-8.225-8.209h.015" style="stroke:var(--color2, #50dd89)"/></symbol>
<symbol id="icon-email" viewBox="0 0 32 32"><path fill="#50dd89" d="M32 16c0 8.837-7.163 16-16 16S0 24.837 0 16 7.163 0 16 0s16 7.163 16 16z" opacity=".1" style="fill:var(--color2, #50dd89)"/><path fill="#50dd89" d="M18.634 11.378h.002a2.698 2.698 0 0 1 2.697 2.694v4.213a2.698 2.698 0 0 1-2.697 2.694h-5.271a2.698 2.698 0 0 1-2.697-2.694v-4.213a2.694 2.694 0 0 1 2.694-2.694h5.274zm.849 3.488.043-.043a.411.411 0 0 0-.006-.534v.001a.453.453 0 0 0-.28-.139h-.002l-.024-.001a.403.403 0 0 0-.275.108l-2.405 1.92a.837.837 0 0 1-1.067 0l-2.4-1.92a.406.406 0 0 0-.57.571l-.001-.001.07.07 2.426 1.894a1.672 1.672 0 0 0 2.088-.002l-.003.003 2.406-1.926z" style="fill:var(--color2, #50dd89)"/></symbol>
<symbol id="icon-heart" viewBox="0 0 33 32"><path fill="none" stroke="#50dd89" stroke-linecap="round" stroke-linejoin="round" stroke-width="1.684" d="M1.46 15.135C-.324 9.566 1.761 3.201 7.607 1.318a9.987 9.987 0 0 1 9.026 1.516c2.419-1.869 5.938-2.501 9.01-1.516 5.846 1.883 7.944 8.248 6.162 13.817-2.776 8.827-15.172 15.625-15.172 15.625S4.329 24.065 1.46 15.135z" style="stroke:var(--color2, #50dd89)"/><path fill="none" stroke="#50dd89" stroke-linecap="round" stroke-linejoin="round" stroke-width="1.684" d="M23.283 6.992c1.755.58 3.029 2.136 3.185 4.009l.001.017" style="stroke:var(--color2, #50dd89)"/></symbol>
<symbol id="icon-phone" viewBox="0 0 32 32"><path fill="#7255ce" d="M32 16c0 8.837-7.163 16-16 16S0 24.837 0 16 7.163 0 16 0s16 7.163 16 16z" opacity=".1" style="fill:var(--color3, #7255ce)"/><path fill="#816ae2" d="M15.737 16.265c2.24 2.239 2.748-.351 4.174 1.074 1.374 1.374 2.164 1.65.422 3.391-.218.176-1.604 2.285-6.475-2.586s-2.764-6.258-2.588-6.476c1.746-1.746 2.017-.951 3.391.423 1.426 1.426-1.163 1.935 1.076 4.174z" style="fill:var(--color4, #816ae2)"/></symbol>
<symbol id="icon-star" viewBox="0 0 35 32"><path fill="none" stroke="#49b1f7" stroke-linecap="round" stroke-linejoin="round" stroke-width="1.73" d="m19.289 2.071 3.254 6.5c.322.63.923 1.078 1.637 1.182l.012.001 7.279 1.048c1.798.259 2.514 2.439 1.213 3.688l-5.264 5.058a2.138 2.138 0 0 0-.629 1.928l-.002-.013 1.242 7.14c.306 1.767-1.574 3.114-3.182 2.279l-6.506-3.374c-.296-.156-.648-.248-1.021-.248s-.724.092-1.033.254l.012-.006-6.506 3.374c-1.608.835-3.488-.512-3.18-2.279l1.241-7.141a2.137 2.137 0 0 0-.63-1.914L1.961 14.49c-1.302-1.249-.586-3.429 1.213-3.688l7.279-1.048a2.195 2.195 0 0 0 1.644-1.171l.006-.012 3.252-6.5c.804-1.607 3.128-1.607 3.933 0z" style="stroke:var(--color1, #49b1f7)"/></symbol>
<symbol id="icon-time" viewBox="0 0 32 32"><path fill="#49b1f7" d="M32 16c0 8.837-7.163 16-16 16S0 24.837 0 16 7.163 0 16 0s16 7.163 16 16z" opacity=".1" style="fill:var(--color1, #49b1f7)"/><path fill="#49b1f7" d="M16 21.333A5.332 5.332 0 0 1 10.667 16 5.335 5.335 0 0 1 16 10.667 5.33 5.33 0 0 1 21.333 16 5.328 5.328 0 0 1 16 21.333zm1.701-3.355a.395.395 0 0 0 .548-.137l.001-.002a.4.4 0 0 0-.137-.548l-.002-.001-1.899-1.131v-2.464a.4.4 0 1 0-.8 0v2.693a.4.4 0 0 0 .197.341l2.091 1.248z" style="fill:var(--color1, #49b1f7)"/></symbol></defs>
</svg>