<svg xmlns="http://www.w3.org/2000/svg" width="80" height="74" fill="none"><path stroke="#49B1F7" stroke-linecap="round" stroke-linejoin="round" stroke-width="4" d="M44.606 4.788 52.13 19.82a5.056 5.056 0 0 0 3.812 2.736l16.833 2.423c4.159.6 5.814 5.64 2.804 8.529L63.407 45.204a4.954 4.954 0 0 0-1.458 4.428l2.873 16.512c.707 4.085-3.64 7.201-7.358 5.269L42.42 63.61a5.14 5.14 0 0 0-4.72 0l-15.045 7.802c-3.718 1.932-8.065-1.184-7.354-5.269l2.869-16.513a4.954 4.954 0 0 0-1.458-4.427L4.539 33.508c-3.01-2.888-1.355-7.929 2.804-8.529l16.833-2.423a5.063 5.063 0 0 0 3.816-2.736l7.52-15.032c1.86-3.717 7.233-3.717 9.094 0Z" clip-rule="evenodd"/></svg>